<?xml version="1.0" encoding="UTF-8" standalone="no"?>
<!DOCTYPE svg PUBLIC "-//W3C//DTD SVG 1.1//EN" "http://www.w3.org/Graphics/SVG/1.1/DTD/svg11.dtd">
<svg width="100%" height="100%" viewBox="0 0 1024 1024" version="1.1" xmlns="http://www.w3.org/2000/svg" xmlns:xlink="http://www.w3.org/1999/xlink" xml:space="preserve" xmlns:serif="http://www.serif.com/" style="fill-rule:evenodd;clip-rule:evenodd;stroke-linecap:round;">
    <g id="Layer1">
    </g>
    <g transform="matrix(0.989283,0,0,0.989283,5.487179,5.487179)">
        <g transform="matrix(3.084337,0,0,3.084337,-277.590361,-277.590361)">
            <path d="M256,100C169.8,100 100,169.8 100,256C100,342.2 169.8,412 256,412C342.2,412 412,342.2 412,256" style="fill:none;fill-rule:nonzero;stroke:rgb(10,46,26);stroke-width:20px;"/>
        </g>
        <g transform="matrix(3.084337,0,0,3.084337,-277.590361,-277.590361)">
            <path d="M256,140C290,140 320,155 340,180" style="fill:none;fill-rule:nonzero;stroke:rgb(157,231,112);stroke-width:40px;"/>
        </g>
        <g transform="matrix(3.084337,0,0,3.084337,-277.590361,-277.590361)">
            <path d="M372,256C372,290 357,320 332,340" style="fill:none;fill-rule:nonzero;stroke:rgb(157,231,112);stroke-width:40px;"/>
        </g>
        <g transform="matrix(3.084337,0,0,3.084337,-277.590361,-277.590361)">
            <path d="M256,372C222,372 192,357 172,332" style="fill:none;fill-rule:nonzero;stroke:rgb(157,231,112);stroke-width:40px;"/>
        </g>
        <g transform="matrix(3.084337,0,0,3.084337,-277.590361,-277.590361)">
            <path d="M140,256C140,222 155,192 180,172" style="fill:none;fill-rule:nonzero;stroke:rgb(157,231,112);stroke-width:40px;"/>
        </g>
        <g transform="matrix(3.084337,0,0,3.084337,-277.590361,-277.590361)">
            <circle cx="256" cy="256" r="60" style="fill:rgb(10,46,26);"/>
        </g>
        <g transform="matrix(3.084337,0,0,3.084337,-277.590361,-277.590361)">
            <circle cx="256" cy="256" r="50" style="fill:none;stroke:rgb(157,231,112);stroke-opacity:0.35;stroke-width:2px;stroke-linecap:butt;"/>
        </g>
        <g transform="matrix(3.084337,0,0,3.084337,511.493976,581.789157)">
            <text x="-14.369px" y="0px" style="font-family:'Arial-BoldMT', 'Arial', sans-serif;font-weight:700;font-size:56px;fill:rgb(157,231,112);">₫</text>
        </g>
    </g>
</svg>
