<svg width="1024" height="1024" fill="#615fff" xmlns="http://www.w3.org/2000/svg" xmlns:xlink="http://www.w3.org/1999/xlink" xmlns:serif="http://www.serif.com/" viewBox="0 0 32 32" version="1.1" xml:space="preserve" style="" x="0px" y="0px" fill-rule="evenodd" clip-rule="evenodd" stroke-linejoin="round" stroke-miterlimit="2"><path d="M15.207,5.275c-0.245,0.017 -0.467,0.153 -0.593,0.365c-0.126,0.211 -0.14,0.471 -0.038,0.694c0.351,0.772 0.547,1.628 0.547,2.53c-0,3.374 -2.74,6.113 -6.114,6.113c-0.963,0 -1.874,-0.222 -2.684,-0.62c-0.221,-0.108 -0.481,-0.101 -0.696,0.019c-0.215,0.12 -0.357,0.338 -0.381,0.583c-0.033,0.343 -0.05,0.69 -0.05,1.041c0,5.933 4.817,10.75 10.75,10.75c0.337,-0 0.67,-0.016 0.999,-0.046c0.242,-0.022 0.457,-0.16 0.579,-0.37c0.122,-0.209 0.135,-0.465 0.036,-0.686c-0.347,-0.766 -0.539,-1.616 -0.539,-2.512c-0,-3.374 2.739,-6.113 6.113,-6.113c0.88,-0 1.716,0.185 2.472,0.521c0.222,0.098 0.477,0.083 0.686,-0.041c0.208,-0.123 0.345,-0.34 0.365,-0.581c0.026,-0.304 0.039,-0.611 0.039,-0.922c0,-5.933 -4.817,-10.75 -10.75,-10.75c-0.249,-0 -0.496,0.008 -0.741,0.025Zm1.12,1.483c4.865,0.196 8.768,4.158 8.869,9.047c-0.655,-0.184 -1.346,-0.282 -2.06,-0.282c-4.202,-0 -7.613,3.411 -7.613,7.613c-0,0.733 0.103,1.442 0.297,2.113c-5.006,-0.068 -9.058,-4.122 -9.121,-9.129c0.729,0.232 1.505,0.357 2.31,0.357c4.202,0 7.614,-3.411 7.614,-7.613c-0,-0.731 -0.103,-1.437 -0.296,-2.106Z"/><path d="M23.136,15.523c-4.202,-0 -7.613,3.411 -7.613,7.613c-0,4.202 3.411,7.614 7.613,7.614c4.202,0 7.614,-3.412 7.614,-7.614c0,-4.202 -3.412,-7.613 -7.614,-7.613Zm0.611,4.528c0.002,-0.023 0.003,-0.046 0.003,-0.07l-0,-0.517c0,-0.414 -0.336,-0.75 -0.75,-0.75c-0.414,0 -0.75,0.336 -0.75,0.75l-0,0.517c0,0.041 0.003,0.081 0.01,0.12c-0.269,0.091 -0.501,0.234 -0.695,0.428c-0.365,0.365 -0.547,0.792 -0.547,1.283c-0,0.356 0.071,0.661 0.213,0.915c0.142,0.253 0.319,0.439 0.531,0.556c0.211,0.117 0.44,0.218 0.685,0.305c0.245,0.086 0.473,0.149 0.685,0.188c0.212,0.039 0.389,0.101 0.531,0.188c0.142,0.086 0.213,0.193 0.213,0.321c-0,0.424 -0.259,0.636 -0.777,0.636c-0.123,-0 -0.257,-0.044 -0.401,-0.13c-0.145,-0.086 -0.257,-0.177 -0.335,-0.272c-0.278,-0.278 -0.496,-0.417 -0.652,-0.417c-0.156,-0 -0.303,0.066 -0.443,0.2c-0.239,0.234 -0.359,0.422 -0.359,0.564c0,0.142 0.072,0.303 0.217,0.481l0.076,0.092c0.117,0.167 0.323,0.34 0.618,0.518c0.118,0.077 0.267,0.145 0.445,0.202c-0.007,0.041 -0.011,0.083 -0.012,0.126l-0.004,0.517c-0.004,0.414 0.329,0.753 0.743,0.757c0.414,0.003 0.753,-0.33 0.757,-0.744l0.004,-0.517c0,-0.028 -0.001,-0.055 -0.004,-0.082c0.287,-0.071 0.563,-0.194 0.829,-0.368c0.234,-0.15 0.423,-0.363 0.568,-0.639c0.145,-0.276 0.218,-0.595 0.218,-0.957c-0,-0.362 -0.072,-0.667 -0.214,-0.915c-0.142,-0.248 -0.319,-0.422 -0.53,-0.522c-0.212,-0.101 -0.443,-0.186 -0.694,-0.255c-0.251,-0.07 -0.482,-0.122 -0.694,-0.155c-0.211,-0.033 -0.388,-0.097 -0.53,-0.192c-0.142,-0.095 -0.213,-0.219 -0.213,-0.372c-0,-0.153 0.059,-0.273 0.179,-0.359c0.12,-0.087 0.271,-0.13 0.452,-0.13c0.181,-0 0.33,0.036 0.447,0.109c0.039,0.027 0.082,0.064 0.129,0.108c0.048,0.045 0.08,0.073 0.096,0.084c0.173,0.111 0.318,0.167 0.435,0.167c0.201,-0 0.396,-0.139 0.585,-0.418c0.134,-0.195 0.201,-0.348 0.201,-0.46c-0,-0.111 -0.087,-0.247 -0.26,-0.409l-0.208,-0.159c-0.106,-0.089 -0.297,-0.177 -0.573,-0.263c-0.073,-0.023 -0.148,-0.043 -0.225,-0.06Z"/><path d="M9.009,1.25c-4.202,0 -7.614,3.412 -7.614,7.614c0,4.202 3.412,7.613 7.614,7.613c4.202,0 7.614,-3.411 7.614,-7.613c-0,-4.202 -3.412,-7.614 -7.614,-7.614Zm0.75,8.181l0,-3.427c0,-0.414 -0.336,-0.75 -0.75,-0.75c-0.414,-0 -0.75,0.336 -0.75,0.75l0,2.999l-1.913,1.104c-0.358,0.207 -0.481,0.666 -0.274,1.025c0.207,0.358 0.666,0.481 1.024,0.274l2.284,-1.319c0.004,-0.002 0.008,-0.004 0.011,-0.006c0.115,-0.068 0.205,-0.162 0.268,-0.27c0.062,-0.108 0.099,-0.234 0.1,-0.367c0,-0.004 0,-0.008 0,-0.013Z"/><text x="0" y="47" fill="#000000" font-size="5px" font-weight="bold" font-family="'Helvetica Neue', Helvetica, Arial-Unicode, Arial, Sans-serif">Created by zafdesign</text><text x="0" y="52" fill="#000000" font-size="5px" font-weight="bold" font-family="'Helvetica Neue', Helvetica, Arial-Unicode, Arial, Sans-serif">from the Noun Project</text></svg>
