<svg width="1024" height="1024" fill="#615fff" xmlns="http://www.w3.org/2000/svg" xmlns:xlink="http://www.w3.org/1999/xlink" version="1.1" x="0px" y="0px" viewBox="0 0 512 512" style="enable-background:new 0 0 512 512;" xml:space="preserve"><g><g><path d="M286.761,251.604c-12.481-5.021-22.577-7.06-24.529-7.615v-26.902c3.69,0.528,7.349,1.418,10.979,2.67    c5.526,1.913,12.255,4.741,17.207,7.813c1.913,1.187,3.068,2.045,3.464,2.571l14.242-26.902    c-5.54-3.165-12.066-6.262-19.583-9.297c-7.517-3.032-15.564-4.945-24.134-5.737v-19.979h-13.649v19.979    c-18.603,1.943-34.002,10.041-41.541,27.001c-4.508,10.144-4.535,23.674-1.285,32.145c3.339,8.725,10.287,14.412,18.693,18.495    c10.709,5.21,22.429,7.96,26.309,9.199v26.308c-4.747-0.657-9.365-1.745-13.846-3.263c-6.629-2.24-15.048-5.664-20.869-9.495    c-2.309-1.516-3.728-2.604-4.253-3.265l-14.242,28.288c14.85,9.899,33.695,15.503,51.036,17.011v23.145h13.649v-22.946    c11.755-0.493,23.966-3.456,33.331-10.582c4.417-3.364,7.943-7.682,10.582-12.958c2.637-5.272,3.957-11.67,3.957-19.187    c0-6.46-1.023-11.999-3.065-16.616C305.773,263.73,299.364,256.678,286.761,251.604z M252.934,241.218    c-4.617-1.449-8.079-3.131-10.385-5.043c-2.309-1.911-3.461-4.517-3.461-7.814c0-6.855,4.614-10.682,13.846-11.472V241.218z     M262.231,301.749v-23.737c4.615,1.582,8.308,3.332,11.076,5.242c2.771,1.913,4.156,4.584,4.156,8.011    C277.464,297.86,272.384,301.353,262.231,301.749z"/><path d="M256,41C134.412,41,36,139.396,36,261c0,121.587,98.396,220,220,220c121.588,0,220-98.396,220-220    C476,139.412,377.604,41,256,41z M256,461c-110.28,0-200-89.72-200-200S145.72,61,256,61s200,89.72,200,200S366.28,461,256,461z"/><path d="M256,91c-93.738,0-170,76.262-170,170s76.262,170,170,170s170-76.262,170-170S349.738,91,256,91z M256,411    c-82.71,0-150-67.29-150-150c0-82.71,67.29-150,150-150c82.71,0,150,67.29,150,150C406,343.71,338.71,411,256,411z"/><path d="M256,371c-60.654,0-110-49.346-110-110c0-5.523-4.477-10-10-10s-10,4.477-10,10c0,71.683,58.318,130,130,130    c5.522,0,10-4.478,10-10S261.522,371,256,371z"/><path d="M256,131c-5.523,0-10,4.477-10,10s4.477,10,10,10c60.654,0,110,49.346,110,110c0,5.522,4.478,10,10,10s10-4.478,10-10    C386,189.318,327.683,131,256,131z"/><path d="M56,401c-16.542,0-30,13.458-30,30s13.458,30,30,30s30-13.458,30-30S72.542,401,56,401z M56,441c-5.514,0-10-4.486-10-10    s4.486-10,10-10s10,4.486,10,10S61.514,441,56,441z"/><path d="M446,101c22.056,0,40-17.944,40-40s-17.944-40-40-40s-40,17.944-40,40S423.944,101,446,101z M446,41    c11.028,0,20,8.972,20,20s-8.972,20-20,20s-20-8.972-20-20S434.972,41,446,41z"/><circle cx="466" cy="381" r="10"/><circle cx="426" cy="461" r="10"/><circle cx="126" cy="481" r="10"/><circle cx="116" cy="51" r="10"/><circle cx="46" cy="121" r="10"/><circle cx="466" cy="141" r="10"/></g></g><text x="0" y="527" fill="#000000" font-size="5px" font-weight="bold" font-family="'Helvetica Neue', Helvetica, Arial-Unicode, Arial, Sans-serif">Created by Flatart</text><text x="0" y="532" fill="#000000" font-size="5px" font-weight="bold" font-family="'Helvetica Neue', Helvetica, Arial-Unicode, Arial, Sans-serif">from the Noun Project</text></svg>
